# xmcd
#
# Track frame offsets:
#	150
#	16039
#	35858
#	42872
#	60092
#	74322
#	93257
#	108964
#	123439
#	147161
#	160774
#	175328
#	190532
#
# Disc length: 3441 seconds
#
# Revision: 1
# Processed by: cddbd v1.5.2PL0 Copyright (c) Steve Scherf et al.
# Submitted via: audiograbber 1.83.01
#
DISCID=9f0d6f0d
DTITLE=Good Men Gone Bad - Here We Are
DYEAR=2007
DGENRE=Blues
TTITLE0=100 Times
TTITLE1=Here We Are
TTITLE2=Iceberg
TTITLE3=Homeless
TTITLE4=She Lingers On
TTITLE5=Lazy
TTITLE6=Can I Drive You Home
TTITLE7=Kisses
TTITLE8=To The DJane
TTITLE9=Little Bit Of Sunshine
TTITLE10=Love To The Woman
TTITLE11=20 000 Miles
TTITLE12=Yellow Roses - Drifting
EXTD=
EXTT0=
EXTT1=
EXTT2=
EXTT3=
EXTT4=
EXTT5=
EXTT6=
EXTT7=
EXTT8=
EXTT9=
EXTT10=
EXTT11=
EXTT12=
PLAYORDER=
